<svg viewBox="0 0 509.3 238.7" xmlns="http://www.w3.org/2000/svg" xmlns:xlink="http://www.w3.org/1999/xlink" id="Layer_1" overflow="hidden"><defs></defs><g><path d="M156.4 60.3 170.9 60.3C174.4 60.3 177.2 61.2 179.1 62.9 181.1 64.6 182 66.9 182 69.9 182 72.9 181 75.1 179 76.8 177 78.5 174.3 79.4 170.8 79.4L163.3 79.4 163.3 92.3 156.3 92.3 156.3 60.3ZM170 74C173.7 74 175.5 72.6 175.5 69.9 175.5 67.2 173.7 65.7 170 65.7L163.4 65.7 163.4 74 170 74Z" fill="#231F20"/><path d="M190 91.2C188.2 90.2 186.8 88.9 185.8 87.1 184.8 85.3 184.3 83.2 184.3 80.8 184.3 78.4 184.8 76.3 185.8 74.5 186.8 72.7 188.2 71.3 190 70.4 191.8 69.4 193.9 69 196.4 69 198.9 69 200.9 69.5 202.7 70.4 204.5 71.4 205.9 72.7 206.9 74.5 207.9 76.3 208.4 78.4 208.4 80.8 208.4 83.2 207.9 85.3 206.9 87.1 205.9 88.9 204.5 90.3 202.7 91.2 200.9 92.2 198.8 92.6 196.4 92.6 194 92.6 191.9 92.1 190 91.2ZM200.2 85.8C201.1 84.7 201.5 83 201.5 80.8 201.5 78.6 201.1 76.9 200.2 75.8 199.3 74.7 198 74.1 196.4 74.1 194.8 74.1 193.4 74.7 192.5 75.8 191.6 76.9 191.2 78.6 191.2 80.8 191.2 85.3 193 87.5 196.5 87.5 200 87.5 199.5 86.9 200.3 85.8Z" fill="#231F20"/><path d="M212.6 92.3 212.6 59.2 219.4 59.2 219.4 92.3 212.6 92.3Z" fill="#231F20"/><path d="M224.7 58.8 231.9 58.8 231.9 65.2 224.7 65.2 224.7 58.8ZM224.9 92.3 224.9 69.5 231.7 69.5 231.7 92.3 224.9 92.3Z" fill="#231F20"/><path d="M245.8 74.6 245.8 83.5C245.8 84.8 246.1 85.7 246.8 86.3 247.5 86.9 248.3 87.2 249.4 87.2 250.5 87.2 250.8 87.1 251.6 86.9L251.6 92.2C250.5 92.6 249.2 92.8 247.7 92.8 244.9 92.8 242.7 92 241.2 90.4 239.7 88.8 239 86.6 239 83.7L239 74.7 234.7 74.7 234.7 69.6 239 69.6 239 64.2 245.8 62 245.8 69.6 251.6 69.6 251.6 74.7 245.8 74.7Z" fill="#231F20"/><path d="M275.5 81.5 260.5 81.5C260.6 83.6 261.2 85.2 262.2 86.2 263.2 87.2 264.7 87.7 266.6 87.7 268.5 87.7 268.9 87.5 270.1 87.1 271.3 86.7 272.3 86.1 273.3 85.4L275.1 90C274 90.9 272.7 91.6 271.1 92 269.5 92.5 267.9 92.7 266.3 92.7 262.5 92.7 259.5 91.6 257.3 89.5 255.1 87.4 254 84.5 254 80.8 254 77.1 254.5 76.4 255.4 74.6 256.3 72.8 257.7 71.4 259.4 70.4 261.1 69.4 263 68.9 265.2 68.9 268.4 68.9 270.9 69.9 272.8 72 274.7 74.1 275.6 76.9 275.6 80.4L275.6 81.4ZM262.2 74.8C261.4 75.5 260.9 76.6 260.6 78.1L269.6 78.1C269.2 75.2 267.8 73.7 265.2 73.7 262.6 73.7 262.9 74.1 262.1 74.8ZM267.2 66.6 263 66.6 267.5 57.3 274.2 57.3 267.3 66.6Z" fill="#231F20"/><path d="M281.8 89.5C279.7 87.4 278.6 84.5 278.6 80.9 278.6 77.3 279.1 76.4 280.1 74.6 281.1 72.8 282.6 71.4 284.4 70.4 286.2 69.4 288.4 68.9 290.8 68.9 293.2 68.9 294.1 69.2 295.6 69.7 297.2 70.2 298.4 70.9 299.3 71.8L297.5 76.5C296.6 75.8 295.6 75.2 294.5 74.8 293.4 74.4 292.4 74.2 291.4 74.2 289.5 74.2 288.1 74.8 287.1 75.9 286.1 77 285.5 78.7 285.5 80.8 285.5 82.9 286 84.6 287 85.8 288 86.9 289.5 87.5 291.4 87.5 293.3 87.5 293.5 87.3 294.5 86.9 295.6 86.5 296.6 85.9 297.5 85.2L299.3 89.9C298.3 90.8 297 91.5 295.4 91.9 293.8 92.4 292.1 92.6 290.4 92.6 286.7 92.6 283.8 91.6 281.7 89.5Z" fill="#231F20"/><path d="M324.8 78.5 324.8 92.3 318 92.3 318 78.8C318 77.2 317.7 76.1 317.1 75.3 316.5 74.6 315.6 74.2 314.3 74.2 313 74.2 311.6 74.7 310.7 75.6 309.8 76.6 309.4 77.8 309.4 79.5L309.4 92.3 302.6 92.3 302.6 76C302.6 73.6 302.5 71.4 302.2 69.5L308.6 69.5 309 73.1C309.8 71.8 310.9 70.7 312.2 70 313.5 69.3 315 68.9 316.6 68.9 322 68.9 324.7 72.1 324.7 78.5Z" fill="#231F20"/><path d="M330 58.8 337.2 58.8 337.2 65.2 330 65.2 330 58.8ZM330.2 92.3 330.2 69.5 337 69.5 337 92.3 330.2 92.3Z" fill="#231F20"/><path d="M344.6 89.5C342.5 87.4 341.4 84.5 341.4 80.9 341.4 77.3 341.9 76.4 342.9 74.6 343.9 72.8 345.4 71.4 347.2 70.4 349 69.4 351.2 68.9 353.6 68.9 356 68.9 356.9 69.2 358.4 69.7 360 70.2 361.2 70.9 362.1 71.8L360.3 76.5C359.4 75.8 358.4 75.2 357.3 74.8 356.2 74.4 355.2 74.2 354.2 74.2 352.3 74.2 350.9 74.8 349.9 75.9 348.9 77 348.3 78.7 348.3 80.8 348.3 82.9 348.8 84.6 349.8 85.8 350.8 86.9 352.3 87.5 354.2 87.5 356.1 87.5 356.3 87.3 357.3 86.9 358.4 86.5 359.4 85.9 360.3 85.2L362.1 89.9C361.1 90.8 359.8 91.5 358.2 91.9 356.6 92.4 354.9 92.6 353.2 92.6 349.5 92.6 346.6 91.6 344.5 89.5Z" fill="#231F20"/><path d="M369.9 91.2C368.1 90.2 366.7 88.9 365.7 87.1 364.7 85.3 364.2 83.2 364.2 80.8 364.2 78.4 364.7 76.3 365.7 74.5 366.7 72.7 368.1 71.3 369.9 70.4 371.7 69.4 373.8 69 376.3 69 378.8 69 380.8 69.5 382.6 70.4 384.4 71.4 385.8 72.7 386.8 74.5 387.8 76.3 388.3 78.4 388.3 80.8 388.3 83.2 387.8 85.3 386.8 87.1 385.8 88.9 384.4 90.3 382.6 91.2 380.8 92.2 378.7 92.6 376.3 92.6 373.9 92.6 371.8 92.1 369.9 91.2ZM380.1 85.8C381 84.7 381.4 83 381.4 80.8 381.4 78.6 381 76.9 380.1 75.8 379.2 74.7 377.9 74.1 376.3 74.1 374.7 74.1 373.3 74.7 372.4 75.8 371.5 76.9 371.1 78.6 371.1 80.8 371.1 85.3 372.9 87.5 376.4 87.5 379.9 87.5 379.4 86.9 380.2 85.8Z" fill="#231F20"/></g><g><path d="M180.2 101.2 180.2 134.3 173.5 134.3 173.5 130.9C172.8 132.1 171.8 133 170.6 133.6 169.3 134.3 167.9 134.6 166.3 134.6 164.7 134.6 162.6 134.1 161.1 133.1 159.6 132.1 158.4 130.7 157.5 128.9 156.6 127.1 156.2 125 156.2 122.7 156.2 120.4 156.6 118.3 157.5 116.5 158.4 114.7 159.5 113.3 161.1 112.4 162.6 111.4 164.4 110.9 166.3 110.9 168.2 110.9 169.2 111.2 170.5 111.9 171.8 112.5 172.7 113.4 173.4 114.6L173.4 101.2 180.2 101.2ZM172.2 127.7C173.1 126.5 173.5 124.9 173.5 122.7 173.5 120.5 173 118.9 172.1 117.8 171.2 116.6 169.9 116.1 168.3 116.1 166.7 116.1 165.3 116.7 164.4 117.8 163.5 118.9 163 120.6 163 122.7 163 124.8 163.5 126.5 164.4 127.7 165.3 128.9 166.6 129.5 168.3 129.5 170 129.5 171.3 128.9 172.2 127.8Z" fill="#231F20"/><path d="M206.2 123.4 191.2 123.4C191.3 125.5 191.9 127.1 192.9 128.1 193.9 129.1 195.4 129.6 197.3 129.6 199.2 129.6 199.6 129.4 200.8 129 202 128.6 203 128 204 127.3L205.8 131.9C204.7 132.8 203.4 133.5 201.8 133.9 200.2 134.4 198.6 134.6 197 134.6 193.2 134.6 190.2 133.5 188 131.4 185.8 129.3 184.7 126.4 184.7 122.7 184.7 119 185.2 118.3 186.1 116.5 187 114.7 188.4 113.3 190.1 112.3 191.8 111.3 193.7 110.8 195.9 110.8 199.1 110.8 201.6 111.8 203.5 113.9 205.4 116 206.3 118.8 206.3 122.3L206.3 123.3ZM192.8 116.8C192 117.5 191.5 118.6 191.2 120.1L200.2 120.1C199.8 117.2 198.4 115.7 195.8 115.7 193.2 115.7 193.5 116.1 192.7 116.8Z" fill="#231F20"/><path d="M230.9 134.2 230.9 107.9 220.9 107.9 220.9 102.2 248.1 102.2 248.1 107.9 238.1 107.9 238.1 134.2 231 134.2Z" fill="#231F20"/><path d="M252.2 133.2C250.4 132.2 249 130.9 248 129.1 247 127.3 246.5 125.2 246.5 122.8 246.5 120.4 247 118.3 248 116.5 249 114.7 250.4 113.3 252.2 112.4 254 111.4 256.1 111 258.6 111 261.1 111 263.1 111.5 264.9 112.4 266.7 113.4 268.1 114.7 269.1 116.5 270.1 118.3 270.6 120.4 270.6 122.8 270.6 125.2 270.1 127.3 269.1 129.1 268.1 130.9 266.7 132.3 264.9 133.2 263.1 134.2 261 134.6 258.6 134.6 256.2 134.6 254.1 134.1 252.2 133.2ZM262.4 127.8C263.3 126.7 263.7 125 263.7 122.8 263.7 120.6 263.3 118.9 262.4 117.8 261.5 116.7 260.2 116.1 258.6 116.1 257 116.1 255.6 116.7 254.7 117.8 253.8 118.9 253.4 120.6 253.4 122.8 253.4 127.3 255.2 129.5 258.7 129.5 262.2 129.5 261.7 128.9 262.5 127.8Z" fill="#231F20"/><path d="M308.6 113.2C309.9 114.8 310.5 117.2 310.5 120.4L310.5 134.2 303.7 134.2 303.7 120.6C303.7 119 303.4 117.9 302.9 117.2 302.4 116.5 301.6 116.1 300.4 116.1 299.2 116.1 298 116.6 297.2 117.5 296.4 118.4 296.1 119.8 296.1 121.5L296.1 134.1 289.3 134.1 289.3 120.5C289.3 118.9 289 117.8 288.5 117.1 288 116.4 287.1 116 286 116 284.9 116 283.5 116.5 282.8 117.4 282 118.4 281.7 119.7 281.7 121.4L281.7 134 274.9 134 274.9 117.7C274.9 115.3 274.8 113.1 274.5 111.2L280.9 111.2 281.3 114.6C282 113.3 283 112.3 284.2 111.6 285.4 110.9 286.9 110.6 288.5 110.6 291.9 110.6 294.1 112 295.2 114.8 295.9 113.5 297 112.5 298.3 111.7 299.6 110.9 301.1 110.6 302.7 110.6 305.3 110.6 307.2 111.4 308.5 113Z" fill="#231F20"/><path d="M338.7 111.5 338.7 134.3 332 134.3 332 130.9C331.3 132.1 330.3 133 329.1 133.6 327.8 134.3 326.4 134.6 324.8 134.6 323.2 134.6 321.1 134.1 319.6 133.2 318.1 132.2 316.9 130.9 316 129.1 315.1 127.3 314.7 125.3 314.7 122.9 314.7 120.5 315.1 118.5 316 116.7 316.9 114.9 318 113.5 319.6 112.5 321.1 111.5 322.9 111 324.8 111 326.7 111 327.8 111.3 329.1 112 330.4 112.7 331.3 113.6 332 114.8L332 111.6 338.7 111.6ZM330.6 127.7C331.5 126.6 331.9 124.9 331.9 122.8 331.9 120.7 331.5 119 330.6 117.8 329.7 116.6 328.4 116.1 326.7 116.1 325 116.1 323.7 116.7 322.8 117.9 321.9 119.1 321.4 120.8 321.4 122.9 321.4 125 321.9 126.7 322.8 127.8 323.7 128.9 325 129.5 326.7 129.5 328.4 129.5 329.7 128.9 330.6 127.8Z" fill="#231F20"/><path d="M359.8 111.4 359.8 117.6C358.6 117.1 357.5 116.8 356.4 116.8 354.6 116.8 353.2 117.3 352.3 118.3 351.4 119.3 350.9 120.6 350.9 122.4L350.9 134.3 344.1 134.3 344.1 118C344.1 115.6 344 113.4 343.7 111.5L350.1 111.5 350.5 115.4C351.1 114 352 112.9 353.2 112.1 354.4 111.3 355.8 111 357.3 111 358.8 111 359.1 111.2 359.7 111.4Z" fill="#231F20"/></g><g><path d="M156.6 159.3 156.6 144.6 166.4 144.6 166.4 146.7 159.2 146.7 159.2 150.8 166 150.8 166 152.9 159.2 152.9 159.2 157.2 166.4 157.2 166.4 159.3 156.6 159.3Z" fill="#231F20"/><path d="M168 158.1 168.7 156.3C169.8 157.1 171.1 157.5 172.5 157.5 173.9 157.5 173.6 157.4 173.9 157.2 174.2 157 174.4 156.7 174.4 156.3 174.4 155.9 174.3 155.7 174 155.5 173.8 155.3 173.4 155.2 172.8 155L171.1 154.6C169.2 154.2 168.3 153.2 168.3 151.7 168.3 150.2 168.5 150.5 168.8 150 169.1 149.5 169.7 149.1 170.3 148.9 170.9 148.6 171.7 148.5 172.5 148.5 173.3 148.5 174 148.6 174.6 148.8 175.3 149 175.9 149.4 176.4 149.8L175.6 151.6C174.6 150.8 173.5 150.4 172.4 150.4 171.3 150.4 171.3 150.5 171 150.7 170.7 150.9 170.5 151.2 170.5 151.6 170.5 152 170.5 152.1 170.8 152.3 171 152.5 171.3 152.6 171.8 152.8L173.6 153.2C174.6 153.4 175.4 153.8 175.9 154.3 176.4 154.8 176.6 155.4 176.6 156.2 176.6 157 176.2 157.9 175.4 158.5 174.6 159.1 173.6 159.3 172.2 159.3 170.8 159.3 168.8 158.9 167.7 158Z" fill="#231F20"/><path d="M180.9 158.8C180.1 158.4 179.5 157.7 179.1 156.9 178.7 156.1 178.5 155.2 178.5 154.1 178.5 153 178.7 152.1 179.2 151.2 179.6 150.4 180.3 149.7 181.1 149.3 181.9 148.8 182.9 148.6 183.9 148.6 184.9 148.6 185.4 148.7 186.1 149 186.8 149.3 187.3 149.6 187.8 150L187.1 151.8C186.7 151.4 186.2 151.2 185.7 151 185.2 150.8 184.7 150.7 184.2 150.7 183.3 150.7 182.5 151 182 151.6 181.5 152.2 181.2 153 181.2 154.1 181.2 155.2 181.5 156 182 156.6 182.5 157.2 183.2 157.5 184.2 157.5 185.2 157.5 185.2 157.5 185.7 157.2 186.2 157 186.7 156.7 187.1 156.4L187.8 158.2C187.4 158.6 186.8 158.9 186.1 159.2 185.4 159.5 184.7 159.6 183.9 159.6 183.1 159.6 181.9 159.4 181.1 158.9Z" fill="#231F20"/><path d="M191.3 158.8C190.5 158.4 189.9 157.7 189.4 156.9 189 156.1 188.8 155.1 188.8 154 188.8 152.9 189 151.9 189.4 151.1 189.8 150.3 190.5 149.7 191.3 149.2 192.1 148.7 193 148.5 194.1 148.5 195.2 148.5 196.1 148.7 196.9 149.2 197.7 149.6 198.3 150.3 198.7 151.1 199.1 151.9 199.3 152.9 199.3 154 199.3 155.1 199.1 156.1 198.7 156.9 198.3 157.7 197.7 158.3 196.9 158.8 196.1 159.2 195.2 159.5 194.1 159.5 193 159.5 192.1 159.3 191.3 158.8ZM196 156.6C196.5 156 196.7 155.2 196.7 154.1 196.7 153 196.5 152.1 196 151.6 195.5 151 194.9 150.7 194 150.7 193.1 150.7 192.5 151 192 151.6 191.5 152.2 191.3 153 191.3 154.1 191.3 155.2 191.5 156.1 192 156.6 192.5 157.2 193.1 157.5 194 157.5 194.9 157.5 195.5 157.2 196 156.6Z" fill="#231F20"/><path d="M201.5 159.3 201.5 144.1 204.1 144.1 204.1 159.3 201.5 159.3Z" fill="#231F20"/><path d="M216.9 148.9 216.9 159.3 214.4 159.3 214.4 157.6C214.1 158.2 213.6 158.6 213 158.9 212.4 159.2 211.7 159.4 211 159.4 210.3 159.4 209.3 159.2 208.6 158.7 207.9 158.3 207.4 157.6 207 156.8 206.6 156 206.4 155 206.4 154 206.4 153 206.6 152 207 151.1 207.4 150.3 207.9 149.6 208.6 149.2 209.3 148.8 210.1 148.5 211 148.5 211.9 148.5 212.4 148.7 213 149 213.6 149.3 214 149.8 214.4 150.3L214.4 148.7 216.9 148.7ZM213.6 156.5C214.1 155.9 214.3 155.1 214.3 154 214.3 152.9 214.1 152.1 213.6 151.5 213.1 150.9 212.5 150.6 211.6 150.6 210.7 150.6 210.1 150.9 209.6 151.5 209.1 152.1 208.9 153 208.9 154 208.9 155 209.1 155.9 209.6 156.5 210.1 157.1 210.7 157.4 211.6 157.4 212.5 157.4 213.1 157.1 213.6 156.5Z" fill="#231F20"/><path d="M227.3 159C226.3 158.7 225.5 158.3 224.8 157.7L225.7 155.8C226.4 156.3 227.2 156.7 227.9 157 228.7 157.3 229.5 157.4 230.4 157.4 231.3 157.4 232.2 157.2 232.8 156.9 233.4 156.5 233.6 156 233.6 155.4 233.6 154.8 233.3 154.4 232.8 154.1 232.3 153.8 231.4 153.5 230.3 153.3 228.5 152.9 227.1 152.4 226.3 151.8 225.5 151.2 225 150.2 225 149 225 147.8 225.2 147.4 225.7 146.7 226.2 146 226.8 145.5 227.7 145.1 228.6 144.7 229.6 144.5 230.7 144.5 231.8 144.5 232.7 144.7 233.6 145 234.5 145.3 235.3 145.7 235.9 146.3L235 148.2C233.7 147.2 232.3 146.6 230.7 146.6 229.1 146.6 229 146.8 228.5 147.2 228 147.6 227.7 148.1 227.7 148.8 227.7 149.5 227.9 149.8 228.4 150.1 228.9 150.4 229.7 150.7 230.9 150.9 232.1 151.2 233.1 151.5 233.9 151.8 234.7 152.1 235.3 152.6 235.7 153.1 236.1 153.6 236.3 154.3 236.3 155.1 236.3 155.9 236.1 156.7 235.6 157.4 235.1 158.1 234.5 158.6 233.6 158.9 232.7 159.3 231.7 159.4 230.5 159.4 229.3 159.4 228.3 159.2 227.3 158.9Z" fill="#231F20"/><path d="M248 148.9 248 159.3 245.5 159.3 245.5 157.7C245.2 158.3 244.7 158.7 244.2 159 243.7 159.3 243 159.5 242.3 159.5 239.8 159.5 238.5 158.1 238.5 155.2L238.5 148.9 241.1 148.9 241.1 155.2C241.1 156 241.3 156.5 241.6 156.9 241.9 157.3 242.4 157.4 243 157.4 243.6 157.4 244.4 157.2 244.8 156.7 245.3 156.2 245.5 155.5 245.5 154.7L245.5 148.9 248.1 148.9Z" fill="#231F20"/><path d="M259.2 149.3C259.9 149.8 260.4 150.4 260.8 151.2 261.2 152 261.4 153 261.4 154.1 261.4 155.2 261.2 156.1 260.8 156.9 260.4 157.7 259.9 158.3 259.2 158.8 258.5 159.3 257.7 159.5 256.8 159.5 255.9 159.5 255.4 159.3 254.8 159 254.2 158.7 253.8 158.2 253.4 157.7L253.4 163.8 250.8 163.8 250.8 151.9C250.8 150.8 250.8 149.8 250.6 149L253 149 253.2 150.8C253.5 150.2 253.9 149.7 254.5 149.3 255.1 148.9 255.8 148.8 256.6 148.8 257.4 148.8 258.3 149 259 149.5ZM258.1 156.6C258.6 156 258.8 155.2 258.8 154.1 258.8 153 258.6 152.2 258.1 151.6 257.6 151 257 150.7 256.1 150.7 255.2 150.7 254.5 151 254.1 151.6 253.6 152.2 253.4 153 253.4 154.1 253.4 155.2 253.6 156 254.1 156.6 254.6 157.2 255.2 157.5 256.1 157.5 257 157.5 257.6 157.2 258.1 156.6Z" fill="#231F20"/><path d="M272.7 154.2 265.5 154.2C265.5 155.3 265.8 156.1 266.3 156.7 266.8 157.2 267.5 157.5 268.5 157.5 269.5 157.5 270.7 157.1 271.7 156.4L272.4 158.2C271.9 158.6 271.3 158.9 270.6 159.2 269.9 159.4 269.1 159.6 268.4 159.6 266.7 159.6 265.4 159.1 264.4 158.2 263.4 157.2 262.9 155.9 262.9 154.2 262.9 152.5 263.1 152.2 263.5 151.4 263.9 150.6 264.5 149.9 265.3 149.5 266.1 149 266.9 148.8 267.9 148.8 269.3 148.8 270.5 149.3 271.3 150.2 272.1 151.1 272.5 152.4 272.5 154L272.5 154.4ZM266.5 151.1C266.1 151.5 265.8 152.1 265.7 152.9L270.5 152.9C270.5 152.1 270.2 151.5 269.8 151.1 269.4 150.7 268.9 150.5 268.2 150.5 267.5 150.5 267 150.7 266.5 151.1Z" fill="#231F20"/><path d="M281.5 148.8 281.5 151.1C281 150.9 280.6 150.8 280.1 150.8 279.2 150.8 278.6 151.1 278.1 151.6 277.6 152.1 277.4 152.8 277.4 153.6L277.4 159.2 274.8 159.2 274.8 151.7C274.8 150.6 274.8 149.6 274.6 148.8L277 148.8 277.2 150.6C277.5 149.9 277.9 149.4 278.4 149.1 279 148.7 279.6 148.6 280.3 148.6 281 148.6 281 148.6 281.3 148.8Z" fill="#231F20"/><path d="M282.8 144.2 285.7 144.2 285.7 146.7 282.8 146.7 282.8 144.2ZM283 159.3 283 148.9 285.6 148.9 285.6 159.3 283 159.3Z" fill="#231F20"/><path d="M290.3 158.8C289.5 158.4 288.9 157.7 288.4 156.9 288 156.1 287.8 155.1 287.8 154 287.8 152.9 288 151.9 288.4 151.1 288.8 150.3 289.5 149.7 290.3 149.2 291.1 148.8 292 148.5 293.1 148.5 294.2 148.5 295.1 148.7 295.9 149.2 296.7 149.6 297.3 150.3 297.7 151.1 298.1 151.9 298.3 152.9 298.3 154 298.3 155.1 298.1 156.1 297.7 156.9 297.3 157.7 296.7 158.3 295.9 158.8 295.1 159.2 294.2 159.5 293.1 159.5 292 159.5 291.1 159.3 290.3 158.8ZM295 156.6C295.5 156 295.7 155.2 295.7 154.1 295.7 153 295.5 152.1 295 151.6 294.5 151 293.9 150.7 293 150.7 292.1 150.7 291.5 151 291 151.6 290.5 152.2 290.3 153 290.3 154.1 290.3 155.2 290.5 156.1 291 156.6 291.5 157.2 292.1 157.5 293 157.5 293.9 157.5 294.5 157.2 295 156.6Z" fill="#231F20"/><path d="M307.2 148.8 307.2 151.1C306.7 150.9 306.3 150.8 305.8 150.8 304.9 150.8 304.3 151.1 303.8 151.6 303.3 152.1 303.1 152.8 303.1 153.6L303.1 159.2 300.5 159.2 300.5 151.7C300.5 150.6 300.5 149.6 300.3 148.8L302.7 148.8 302.9 150.6C303.2 149.9 303.6 149.4 304.1 149.1 304.7 148.7 305.3 148.6 306 148.6 306.7 148.6 306.7 148.6 307 148.8Z" fill="#231F20"/><path d="M324.2 144.1 324.2 159.3 321.7 159.3 321.7 157.6C321.4 158.2 320.9 158.6 320.3 158.9 319.7 159.2 319 159.4 318.3 159.4 317.6 159.4 316.6 159.2 315.9 158.7 315.2 158.2 314.7 157.6 314.3 156.8 313.9 156 313.7 155 313.7 153.9 313.7 152.8 313.9 151.9 314.3 151.1 314.7 150.3 315.2 149.7 315.9 149.2 316.6 148.7 317.4 148.5 318.3 148.5 319.2 148.5 319.7 148.7 320.3 149 320.9 149.3 321.3 149.7 321.6 150.3L321.6 144 324.2 144ZM321 156.5C321.5 155.9 321.7 155.1 321.7 154 321.7 152.9 321.5 152.1 321 151.5 320.5 150.9 319.9 150.6 319 150.6 318.1 150.6 317.5 150.9 317 151.5 316.5 152.1 316.3 152.9 316.3 154 316.3 155.1 316.5 155.9 317 156.5 317.5 157.1 318.1 157.4 319 157.4 319.9 157.4 320.5 157.1 321 156.5Z" fill="#231F20"/><path d="M336.1 154.2 328.9 154.2C328.9 155.3 329.2 156.1 329.7 156.7 330.2 157.2 330.9 157.5 331.9 157.5 332.9 157.5 334.1 157.1 335.1 156.4L335.8 158.2C335.3 158.6 334.7 158.9 334 159.2 333.3 159.4 332.5 159.6 331.8 159.6 330.1 159.6 328.8 159.1 327.8 158.2 326.8 157.2 326.3 155.9 326.3 154.2 326.3 152.5 326.5 152.2 326.9 151.4 327.3 150.6 327.9 149.9 328.7 149.5 329.5 149 330.3 148.8 331.3 148.8 332.7 148.8 333.9 149.3 334.7 150.2 335.5 151.1 335.9 152.4 335.9 154L335.9 154.4ZM329.9 151.1C329.5 151.5 329.2 152.1 329.1 152.9L333.9 152.9C333.9 152.1 333.6 151.5 333.2 151.1 332.8 150.7 332.3 150.5 331.6 150.5 330.9 150.5 330.4 150.7 329.9 151.1Z" fill="#231F20"/><path d="M347.6 159.3 347.6 146.8 342.8 146.8 342.8 144.6 355.1 144.6 355.1 146.8 350.3 146.8 350.3 159.3 347.6 159.3Z" fill="#231F20"/><path d="M364.2 154.2 357 154.2C357 155.3 357.3 156.1 357.8 156.7 358.3 157.2 359 157.5 360 157.5 361 157.5 362.2 157.1 363.2 156.4L363.9 158.2C363.4 158.6 362.8 158.9 362.1 159.2 361.4 159.4 360.6 159.6 359.9 159.6 358.2 159.6 356.9 159.1 355.9 158.2 354.9 157.2 354.4 155.9 354.4 154.2 354.4 152.5 354.6 152.2 355 151.4 355.4 150.6 356 149.9 356.8 149.5 357.6 149 358.4 148.8 359.4 148.8 360.8 148.8 362 149.3 362.8 150.2 363.6 151.1 364 152.4 364 154L364 154.4ZM357.9 151.1C357.5 151.5 357.2 152.1 357.1 152.9L361.9 152.9C361.9 152.1 361.6 151.5 361.2 151.1 360.8 150.7 360.3 150.5 359.6 150.5 358.9 150.5 358.4 150.7 357.9 151.1Z" fill="#231F20"/><path d="M368.3 158.8C367.5 158.4 366.9 157.7 366.5 156.9 366.1 156.1 365.9 155.2 365.9 154.1 365.9 153 366.1 152.1 366.6 151.2 367 150.4 367.7 149.7 368.5 149.3 369.3 148.8 370.3 148.6 371.3 148.6 372.3 148.6 372.8 148.7 373.5 149 374.2 149.3 374.7 149.6 375.2 150L374.5 151.8C374.1 151.4 373.6 151.2 373.1 151 372.6 150.8 372.1 150.7 371.6 150.7 370.7 150.7 369.9 151 369.4 151.6 368.9 152.2 368.6 153 368.6 154.1 368.6 155.2 368.9 156 369.4 156.6 369.9 157.2 370.6 157.5 371.6 157.5 372.6 157.5 372.6 157.5 373.1 157.2 373.6 157 374.1 156.7 374.5 156.4L375.2 158.2C374.8 158.6 374.2 158.9 373.5 159.2 372.8 159.5 372.1 159.6 371.3 159.6 370.5 159.6 369.3 159.4 368.5 158.9Z" fill="#231F20"/><path d="M386.4 152.9 386.4 159.3 383.8 159.3 383.8 153C383.8 152.2 383.6 151.6 383.3 151.2 383 150.8 382.5 150.6 381.8 150.6 381.1 150.6 380.4 150.9 379.9 151.4 379.4 151.9 379.2 152.6 379.2 153.4L379.2 159.3 376.6 159.3 376.6 151.8C376.6 150.7 376.6 149.7 376.4 148.9L378.8 148.9 379 150.6C379.4 150 379.8 149.5 380.5 149.1 381.1 148.8 381.8 148.6 382.6 148.6 385.1 148.6 386.3 150 386.3 152.9Z" fill="#231F20"/><path d="M391.1 158.8C390.3 158.4 389.7 157.7 389.2 156.9 388.8 156.1 388.6 155.1 388.6 154 388.6 152.9 388.8 151.9 389.2 151.1 389.6 150.3 390.3 149.7 391.1 149.2 391.9 148.8 392.8 148.5 393.9 148.5 395 148.5 395.9 148.7 396.7 149.2 397.5 149.6 398.1 150.3 398.5 151.1 398.9 151.9 399.1 152.9 399.1 154 399.1 155.1 398.9 156.1 398.5 156.9 398.1 157.7 397.5 158.3 396.7 158.8 395.9 159.2 395 159.5 393.9 159.5 392.8 159.5 391.9 159.3 391.1 158.8ZM395.8 156.6C396.3 156 396.5 155.2 396.5 154.1 396.5 153 396.3 152.1 395.8 151.6 395.3 151 394.7 150.7 393.8 150.7 392.9 150.7 392.3 151 391.8 151.6 391.3 152.2 391.1 153 391.1 154.1 391.1 155.2 391.3 156.1 391.8 156.6 392.3 157.2 392.9 157.5 393.8 157.5 394.7 157.5 395.3 157.2 395.8 156.6Z" fill="#231F20"/><path d="M401.3 159.3 401.3 144.1 403.9 144.1 403.9 159.3 401.3 159.3Z" fill="#231F20"/><path d="M408.6 158.8C407.8 158.4 407.2 157.7 406.7 156.9 406.3 156.1 406.1 155.1 406.1 154 406.1 152.9 406.3 151.9 406.7 151.1 407.1 150.3 407.8 149.7 408.6 149.2 409.4 148.8 410.3 148.5 411.4 148.5 412.5 148.5 413.4 148.7 414.2 149.2 415 149.6 415.6 150.3 416 151.1 416.4 151.9 416.6 152.9 416.6 154 416.6 155.1 416.4 156.1 416 156.9 415.6 157.7 415 158.3 414.2 158.8 413.4 159.2 412.5 159.5 411.4 159.5 410.3 159.5 409.4 159.3 408.6 158.8ZM413.4 156.6C413.9 156 414.1 155.2 414.1 154.1 414.1 153 413.9 152.1 413.4 151.6 412.9 151 412.3 150.7 411.4 150.7 410.5 150.7 409.9 151 409.4 151.6 408.9 152.2 408.7 153 408.7 154.1 408.7 155.2 408.9 156.1 409.4 156.6 409.9 157.2 410.5 157.5 411.4 157.5 412.3 157.5 412.9 157.2 413.4 156.6Z" fill="#231F20"/><path d="M428.9 148.9 428.9 159C428.9 160.6 428.5 161.8 427.6 162.7 426.7 163.5 425.4 164 423.7 164 422 164 420.7 163.7 419.5 163L419.9 161C421.2 161.7 422.4 162 423.7 162 425.6 162 426.5 161.1 426.5 159.2L426.5 157.1C426.2 157.7 425.7 158.1 425.1 158.5 424.5 158.8 423.8 159 423.1 159 422.4 159 421.4 158.8 420.7 158.4 420 158 419.4 157.4 419.1 156.6 418.7 155.8 418.5 154.9 418.5 153.9 418.5 152.9 418.7 152 419.1 151.2 419.5 150.4 420 149.8 420.7 149.4 421.4 149 422.2 148.8 423.1 148.8 424 148.8 424.6 149 425.1 149.3 425.7 149.6 426.2 150.1 426.5 150.6L426.5 149 429.1 149ZM425.7 156.1C426.2 155.5 426.4 154.8 426.4 153.8 426.4 152.8 426.2 152 425.7 151.5 425.2 150.9 424.5 150.7 423.7 150.7 422.9 150.7 422.2 151 421.7 151.5 421.2 152.1 421 152.8 421 153.8 421 154.8 421.2 155.6 421.7 156.1 422.2 156.7 422.9 156.9 423.7 156.9 424.5 156.9 425.2 156.6 425.7 156.1Z" fill="#231F20"/><path d="M431.6 144.2 434.5 144.2 434.5 146.7 431.6 146.7 431.6 144.2ZM431.7 159.3 431.7 148.9 434.3 148.9 434.3 159.3 431.7 159.3Z" fill="#231F20"/><path d="M447.1 148.9 447.1 159.3 444.6 159.3 444.6 157.6C444.3 158.2 443.8 158.6 443.2 158.9 442.6 159.2 441.9 159.4 441.2 159.4 440.5 159.4 439.5 159.2 438.8 158.7 438.1 158.2 437.6 157.6 437.2 156.8 436.8 156 436.6 155 436.6 154 436.6 153 436.8 152 437.2 151.1 437.6 150.3 438.1 149.6 438.8 149.2 439.5 148.8 440.3 148.5 441.2 148.5 442.1 148.5 442.6 148.7 443.2 149 443.8 149.3 444.2 149.8 444.6 150.3L444.6 148.7 447.1 148.7ZM443.8 156.5C444.3 155.9 444.5 155.1 444.5 154 444.5 152.9 444.3 152.1 443.8 151.5 443.3 150.9 442.7 150.6 441.8 150.6 440.9 150.6 440.3 150.9 439.8 151.5 439.3 152.1 439.1 153 439.1 154 439.1 155 439.3 155.9 439.8 156.5 440.3 157.1 440.9 157.4 441.8 157.4 442.7 157.4 443.3 157.1 443.8 156.5Z" fill="#231F20"/></g><g><path d="M166.4 164.4 166.4 179.6 163.9 179.6 163.9 177.9C163.6 178.5 163.1 178.9 162.5 179.2 161.9 179.5 161.2 179.7 160.5 179.7 159.8 179.7 158.8 179.5 158.1 179 157.4 178.5 156.9 177.9 156.5 177.1 156.1 176.3 155.9 175.3 155.9 174.2 155.9 173.1 156.1 172.2 156.5 171.4 156.9 170.6 157.4 170 158.1 169.5 158.8 169.1 159.6 168.8 160.5 168.8 161.4 168.8 161.9 169 162.5 169.3 163.1 169.6 163.5 170 163.8 170.6L163.8 164.3 166.4 164.3ZM163.1 176.9C163.6 176.3 163.8 175.5 163.8 174.4 163.8 173.3 163.6 172.5 163.1 171.9 162.6 171.3 162 171 161.1 171 160.2 171 159.6 171.3 159.1 171.9 158.6 172.5 158.4 173.3 158.4 174.4 158.4 175.5 158.6 176.3 159.1 176.9 159.6 177.5 160.2 177.8 161.1 177.8 162 177.8 162.6 177.5 163.1 176.9Z" fill="#231F20"/><path d="M178.3 174.5 171.1 174.5C171.1 175.6 171.4 176.4 171.9 177 172.4 177.5 173.1 177.8 174.1 177.8 175.1 177.8 176.3 177.4 177.3 176.7L178 178.5C177.5 178.9 176.9 179.2 176.2 179.5 175.5 179.7 174.7 179.9 174 179.9 172.3 179.9 171 179.4 170 178.5 169 177.5 168.5 176.2 168.5 174.5 168.5 172.8 168.7 172.5 169.1 171.7 169.5 170.9 170.1 170.2 170.9 169.8 171.7 169.4 172.5 169.1 173.5 169.1 174.9 169.1 176.1 169.6 176.9 170.5 177.7 171.4 178.1 172.7 178.1 174.3L178.1 174.7ZM172 171.4C171.6 171.8 171.3 172.4 171.2 173.2L176 173.2C176 172.4 175.7 171.8 175.3 171.4 174.9 171 174.4 170.8 173.7 170.8 173 170.8 172.5 171 172 171.4Z" fill="#231F20"/><path d="M189.7 179.6 189.7 167.1 184.9 167.1 184.9 164.9 197.2 164.9 197.2 167.1 192.4 167.1 192.4 179.6 189.7 179.6Z" fill="#231F20"/><path d="M199.2 179.1C198.4 178.7 197.8 178 197.3 177.2 196.9 176.4 196.7 175.4 196.7 174.3 196.7 173.2 196.9 172.2 197.3 171.4 197.7 170.6 198.4 170 199.2 169.5 200 169 200.9 168.8 202 168.8 203.1 168.8 204 169 204.8 169.5 205.6 169.9 206.2 170.6 206.6 171.4 207 172.2 207.2 173.2 207.2 174.3 207.2 175.4 207 176.4 206.6 177.2 206.2 178 205.6 178.6 204.8 179.1 204 179.5 203.1 179.8 202 179.8 200.9 179.8 200 179.6 199.2 179.1ZM203.9 176.9C204.4 176.3 204.6 175.5 204.6 174.4 204.6 173.3 204.4 172.4 203.9 171.9 203.4 171.3 202.8 171 201.9 171 201 171 200.4 171.3 199.9 171.9 199.4 172.5 199.2 173.3 199.2 174.4 199.2 175.5 199.4 176.4 199.9 176.9 200.4 177.5 201 177.8 201.9 177.8 202.8 177.8 203.4 177.5 203.9 176.9Z" fill="#231F20"/><path d="M224.3 170C224.9 170.7 225.2 171.8 225.2 173.2L225.2 179.6 222.6 179.6 222.6 173.3C222.6 172.5 222.5 171.9 222.2 171.5 221.9 171.1 221.5 171 220.9 171 220.3 171 219.6 171.3 219.2 171.8 218.8 172.3 218.6 173 218.6 173.9L218.6 179.7 216 179.7 216 173.4C216 172.6 215.9 172 215.6 171.6 215.3 171.2 214.9 171 214.3 171 213.7 171 213 171.3 212.6 171.8 212.2 172.3 212 173 212 173.9L212 179.7 209.4 179.7 209.4 172.2C209.4 171.1 209.4 170.1 209.2 169.3L211.6 169.3 211.8 170.9C212.1 170.3 212.5 169.8 213.1 169.5 213.7 169.2 214.3 169 215.1 169 216.7 169 217.7 169.7 218.2 171 218.5 170.4 219 169.9 219.6 169.5 220.2 169.2 220.9 169 221.6 169 222.8 169 223.7 169.4 224.2 170.1Z" fill="#231F20"/><path d="M237.9 169.2 237.9 179.6 235.4 179.6 235.4 177.9C235.1 178.5 234.6 178.9 234 179.2 233.4 179.5 232.7 179.7 232 179.7 231.3 179.7 230.3 179.5 229.6 179 228.9 178.5 228.4 177.9 228 177.1 227.6 176.3 227.4 175.3 227.4 174.3 227.4 173.3 227.6 172.3 228 171.4 228.4 170.6 228.9 169.9 229.6 169.5 230.3 169.1 231.1 168.8 232 168.8 232.9 168.8 233.4 169 234 169.3 234.6 169.6 235 170.1 235.4 170.6L235.4 169 237.9 169ZM234.7 176.9C235.2 176.3 235.4 175.5 235.4 174.4 235.4 173.3 235.2 172.5 234.7 171.9 234.2 171.3 233.6 171 232.7 171 231.8 171 231.2 171.3 230.7 171.9 230.2 172.5 230 173.4 230 174.4 230 175.4 230.2 176.3 230.7 176.9 231.2 177.5 231.8 177.8 232.7 177.8 233.6 177.8 234.2 177.5 234.7 176.9Z" fill="#231F20"/><path d="M247.3 169.1 247.3 171.4C246.8 171.2 246.4 171.1 245.9 171.1 245 171.1 244.4 171.4 243.9 171.9 243.4 172.4 243.2 173.1 243.2 173.9L243.2 179.5 240.6 179.5 240.6 172C240.6 170.9 240.6 169.9 240.4 169.1L242.8 169.1 243 170.9C243.3 170.2 243.7 169.7 244.2 169.4 244.8 169 245.4 168.9 246.1 168.9 246.8 168.9 246.8 168.9 247.1 169.1Z" fill="#231F20"/></g><path d="M61.4 60 61.4 97.2C61.4 117.7 78.1 134.4 98.6 134.4 119.1 134.4 135.8 117.7 135.8 97.2L135.8 60 61.4 60ZM98.2 98.6C98.2 105.3 94.9 115 87.5 121.9L87 122.4 86.4 122.1C84.9 121.4 83.5 120.5 82.2 119.6L80.9 118.6 82.3 117.9C89 114.6 93.6 108.3 94.8 101 87.5 102.2 81.2 106.8 77.9 113.5L77.2 114.9 76.2 113.6C75.2 112.3 74.4 110.9 73.7 109.4L73.4 108.8 73.9 108.3C80.8 100.9 90.6 97.6 97.2 97.6L98.2 97.6 98.2 98.6ZM98.2 96.8 97.2 96.8C90.5 96.8 80.8 93.5 73.9 86.1L73.4 85.6 73.7 85C74.4 83.5 75.3 82.1 76.2 80.8L77.2 79.5 77.9 80.9C81.2 87.6 87.5 92.2 94.8 93.4 93.6 86.1 89 79.8 82.3 76.5L80.9 75.8 82.2 74.8C83.5 73.8 84.9 73 86.4 72.3L87 72 87.5 72.5C94.9 79.4 98.2 89.2 98.2 95.8L98.2 96.8ZM99 95.9C99 89.2 102.3 79.5 109.7 72.6L110.2 72.1 110.8 72.4C112.3 73.1 113.7 74 115 74.9L116.3 75.9 114.9 76.6C108.2 79.9 103.6 86.2 102.4 93.5 109.7 92.3 116 87.7 119.3 81L120 79.6 121 80.9C122 82.2 122.8 83.6 123.5 85.1L123.8 85.7 123.3 86.2C116.4 93.6 106.6 96.9 100 96.9L99 96.9 99 95.9ZM123.5 109.5C122.8 111 121.9 112.4 121 113.7L120 115 119.3 113.6C116 106.9 109.7 102.3 102.4 101.1 103.6 108.4 108.2 114.7 114.9 118L116.3 118.7 115 119.7C113.7 120.7 112.3 121.5 110.8 122.2L110.2 122.5 109.7 122C102.3 115.1 99 105.3 99 98.7L99 97.7 100 97.7C106.7 97.7 116.4 101 123.3 108.4L123.8 108.9 123.5 109.5Z" fill="#FF8300"/><path d="M80.8 154C80.8 159.4 76.4 163.8 71 163.8 65.6 163.8 61.2 159.4 61.2 154 61.2 148.6 65.6 144.2 71 144.2 76.4 144.2 80.8 148.6 80.8 154" fill="#FF8300" fill-rule="evenodd"/></svg>